<svg width="16" height="16" viewBox="0 0 16 16" fill="none" xmlns="http://www.w3.org/2000/svg">
<path fill-rule="evenodd" clip-rule="evenodd" d="M8.00002 2.40002C8.44185 2.40002 8.80002 2.7582 8.80002 3.20002V7.20002H12.8C13.2419 7.20002 13.6 7.5582 13.6 8.00002C13.6 8.44185 13.2419 8.80002 12.8 8.80002H8.80002V12.8C8.80002 13.2419 8.44185 13.6 8.00002 13.6C7.5582 13.6 7.20002 13.2419 7.20002 12.8V8.80002H3.20002C2.7582 8.80002 2.40002 8.44185 2.40002 8.00002C2.40002 7.5582 2.7582 7.20002 3.20002 7.20002H7.20002V3.20002C7.20002 2.7582 7.5582 2.40002 8.00002 2.40002Z" fill="white"/>
</svg>
