<svg width="20" height="20" viewBox="0 0 20 20" fill="none" xmlns="http://www.w3.org/2000/svg">
<path d="M11.5 10C11.5 10.8284 10.8284 11.5 10 11.5C9.17158 11.5 8.50001 10.8284 8.50001 10C8.50001 9.17157 9.17158 8.5 10 8.5C10.8284 8.5 11.5 9.17157 11.5 10ZM0.983224 10C2.23924 6.22292 5.80226 3.5 9.99997 3.5C14.1977 3.5 17.7607 6.22289 19.0167 9.99996C17.7607 13.7771 14.1977 16.5 9.99995 16.5C5.80226 16.5 2.23926 13.7771 0.983224 10ZM10 14.5C12.4853 14.5 14.5 12.4853 14.5 10C14.5 7.51472 12.4853 5.5 10 5.5C7.51473 5.5 5.50001 7.51472 5.50001 10C5.50001 12.4853 7.51473 14.5 10 14.5Z" fill="#374151" stroke="#4B5563"/>
</svg>
